[color=red][b]Description[/b][/color]

[img]http://img708.imageshack.us/img708/5677/rahulthehunkcase.png[/img]


[img]http://i.imgur.com/rg9Uh.gif[/img]
[color=red]::General::[/color]
Complete name                    : Taio Cruz - Dynamite HD 720p(RaHuL {tHe HuNk})[Silver RG]\Taio Cruz - Dynamite HD 720p(RaHuL {tHe HuNk})[Silver RG].mp4
Format                           : MPEG-4
Format profile                   : Base Media
Codec ID                         : isom
File size                        : 65.8 MiB
Duration                         : 3mn 40s
Overall bit rate                 : 2 507 Kbps
Encoded date                     : UTC 2011-08-26 19:06:59
Tagged date                      : UTC 2011-08-26 19:06:59

[img]http://i.imgur.com/BtNeO.gif[/img]
[color=red]::Video::[/color]
ID                               : 1
Format                           : AVC
Format/Info                      : Advanced Video Codec
Format profile                   : High@L3.1
Format settings, CABAC           : Yes
Format settings, ReFrames        : 4 frames
Format settings, GOP             : M=1, N=59
Codec ID                         : avc1
Codec ID/Info                    : Advanced Video Coding
Duration                         : 3mn 40s
Bit rate                         : 2 364 Kbps
Maximum bit rate                 : 5 350 Kbps
Width                            : 1 280 pixels
Height                           : 720 pixels
Display aspect ratio             : 16:9
Frame rate mode                  : Constant
Frame rate                       : 25.000 fps
Color space                      : YUV
Chroma subsampling               : 4:2:0
Bit depth                        : 8 bits
Scan type                        : Progressive
Bits/(Pixel*Frame)               : 0.103
Stream size                      : 62.0 MiB (94%)
Writing library                  : x264 core 115 r1937 aa21558
Encoding settings                : cabac=1 / ref=3 / deblock=1:0:0 / analyse=0x3:0x133 / me=hex / subme=5 / psy=1 / psy_rd=0.00:0.00 / mixed_ref=0 / me_range=16 / chroma_me=1 / trellis=1 / 8x8dct=1 / cqm=0 / deadzone=21,11 / fast_pskip=1 / chroma_qp_offset=0 / threads=3 / sliced_threads=0 / nr=0 / decimate=1 / interlaced=0 / bluray_compat=0 / constrained_intra=0 / bframes=16 / b_pyramid=2 / b_adapt=1 / b_bias=0 / direct=1 / weightb=0 / open_gop=0 / weightp=2 / keyint=250 / keyint_min=25 / scenecut=40 / intra_refresh=0 / rc_lookahead=40 / rc=crf / mbtree=1 / crf=23.0 / qcomp=0.60 / qpmin=0 / qpmax=69 / qpstep=4 / ip_ratio=1.40 / aq=1:1.00
Encoded date                     : UTC 2011-08-26 19:06:59
Tagged date                      : UTC 2011-08-26 19:07:06

[img]http://i.imgur.com/VASYw.gif[/img]
[color=red]::Audio::[/color]
ID                               : 2
Format                           : AAC
Format/Info                      : Advanced Audio Codec
Format profile                   : LC
Codec ID                         : 40
Duration                         : 3mn 40s
Bit rate mode                    : Variable
Bit rate                         : 144 Kbps
Maximum bit rate                 : 160 Kbps
Channel(s)                       : 2 channels
Channel positions                : Front: L R
Sampling rate                    : 44.1 KHz
Compression mode                 : Lossy
Stream size                      : 3.75 MiB (6%)
Encoded date                     : UTC 2011-08-26 19:07:04
Tagged date                      : UTC 2011-08-26 19:07:06
[color=red]:: Trackers ::[/color] 
http://open.nyaatorrents.info:6544/announce 
http://opentracker.umunu.com:80/announce	 
http://cpleft.com:2710/announce	 
http://exodus.desync.com:6969/announce 
http://pow7.com/announce
[img]http://i.imgur.com/3hJth.gif[/img]
[img]http://img849.imageshack.us/img849/6915/taiocruzdynamitehd720pr.png[/img]
[img]http://img52.imageshack.us/img52/6915/taiocruzdynamitehd720pr.png[/img]
[img]http://img828.imageshack.us/img828/6915/taiocruzdynamitehd720pr.png[/img]

[color=Red][b]::Greetz::[/b][/color] 
[b][u]rahulthehunk[/u] with kkhanand all other P2P Releasers[/b]
[color=Red][b]::Note::[/b][/color]
[b]Make sure its real Silver RG Release From Silver RG Account[/b]
[img]http://i.imgur.com/1mi0I.gif[/img]
 
[b]LiKe Me If U lIkE mY wOrK....
on Facebook..U cAn PoSt YoUr ReQuEsTs On My PaGe I wIlL tRy To Do It As BeSt I cAn..[/b]
[img]http://img808.imageshack.us/img808/6140/facebookkd.png[/img]
[img]http://bt.wrzru.com/bitbucket/seed%20&%20enjoy.gif[/img]
[color=red][b]For Promotional Use Only... Remember to support the artists...
Anyway enjoy the Music,it is free!!!![/b][/color]
[b]NO COPYRIGHT INFRINGEMENT INTENDED[/b]

[b]ENCODER-RaHuL {tHe HuNk}[/b]
[b]REQUESTED[/b]